<svg width="256" height="256" viewBox="0 0 256 256" fill="none" xmlns="http://www.w3.org/2000/svg">
<path d="M138.656 100.925H138.232L104.36 166.554H77.6847L43.8118 100.925H43.3884V205.296H15.2315V50.7506H44.8703L90.8104 141.784H91.2338L137.174 50.7506H167.66V205.296H138.656V100.925Z" fill="#422424"/>
<path d="M138.664 181.373C157.999 166.271 173.305 153.64 183.608 143.478C194.052 133.175 201.038 124.636 204.567 117.861C208.095 111.087 209.86 104.03 209.86 96.6908C209.86 81.0246 201.462 73.1914 184.667 73.1914C172.811 73.1914 167.654 73.4168 167.654 73.4168V50.7739C167.654 50.7739 177.884 50.6171 188.916 50.774C205.429 50.774 218.116 52.656 227.008 60.7008C236.04 68.6045 240.557 79.6132 240.557 93.7269C240.557 106.994 236.323 119.767 227.854 132.046C219.527 144.325 203.155 160.626 178.739 180.95V181.373H240.769V205.296H138.664V181.373Z" fill="#F15F5F"/>
</svg>
